<svg xmlns="http://www.w3.org/2000/svg" viewBox="0 0 32 32" fill="none">
  <rect width="32" height="32" rx="8" fill="#6366f1"/>
  <path d="M16 6c-1.5 0-3 1-4 3-1.5 3-1 6 0.5 8.5C14 20 15.5 22 16 25c0.5-3 2-5 3.5-7.5 1.5-2.5 2-5.5 0.5-8.5-1-2-2.5-3-4-3z" fill="white" opacity="0.95"/>
  <path d="M16 10c-0.8 0-1.6 0.6-2.1 1.6-0.8 1.6-0.5 3.2 0.3 4.5 0.7 1.2 1.4 2.2 1.8 3.4 0.4-1.2 1.1-2.2 1.8-3.4 0.8-1.3 1.1-2.9 0.3-4.5C17.6 10.6 16.8 10 16 10z" fill="#6366f1" opacity="0.4"/>
  <path d="M10.5 15c1.2-0.8 2.5-0.5 3.5 0.5" stroke="white" stroke-width="1.5" stroke-linecap="round" opacity="0.6"/>
  <path d="M21.5 15c-1.2-0.8-2.5-0.5-3.5 0.5" stroke="white" stroke-width="1.5" stroke-linecap="round" opacity="0.6"/>
</svg>
