<svg xmlns="http://www.w3.org/2000/svg" width="1200" height="630" viewBox="0 0 1200 630">
  <defs>
    <linearGradient id="bg" x1="0" y1="0" x2="1" y2="1">
      <stop offset="0%" stop-color="#020617"/>
      <stop offset="100%" stop-color="#0f172a"/>
    </linearGradient>
    <radialGradient id="glow" cx="70%" cy="30%" r="50%">
      <stop offset="0%" stop-color="#0d9488" stop-opacity="0.15"/>
      <stop offset="100%" stop-color="#020617" stop-opacity="0"/>
    </radialGradient>
  </defs>
  <rect width="1200" height="630" fill="url(#bg)"/>
  <rect width="1200" height="630" fill="url(#glow)"/>
  <rect x="60" y="60" width="64" height="64" rx="16" fill="#0d9488"/>
  <path d="M76 92c4-8 12-8 16 0s12 8 16 0" stroke="white" stroke-width="3" stroke-linecap="round" fill="none"/>
  <path d="M76 84c4-8 12-8 16 0s12 8 16 0" stroke="white" stroke-width="2.5" stroke-linecap="round" fill="none" opacity="0.6"/>
  <path d="M76 100c4-8 12-8 16 0s12 8 16 0" stroke="white" stroke-width="2.5" stroke-linecap="round" fill="none" opacity="0.6"/>
  <text x="140" y="105" font-family="system-ui, -apple-system, sans-serif" font-size="28" font-weight="700" fill="white" letter-spacing="-0.5">AirQualityNest</text>
  <text x="60" y="300" font-family="system-ui, -apple-system, sans-serif" font-size="72" font-weight="800" fill="white" letter-spacing="-2">Expert Air Quality</text>
  <text x="60" y="380" font-family="system-ui, -apple-system, sans-serif" font-size="72" font-weight="800" fill="#0d9488" letter-spacing="-2">Reviews &amp; Guides</text>
  <text x="60" y="440" font-family="system-ui, -apple-system, sans-serif" font-size="24" font-weight="300" fill="#94a3b8">Lab-tested air purifiers, monitors, humidifiers &amp; dehumidifiers</text>
  <text x="60" y="560" font-family="system-ui, -apple-system, sans-serif" font-size="18" font-weight="600" fill="#0d9488" letter-spacing="3">AIRQUALITYNEST.COM</text>
</svg>
